<svg width="100" height="100" viewBox="0 0 100 100" fill="none" xmlns="http://www.w3.org/2000/svg">
<g clip-path="url(#clip0_5_14)">
<rect width="100" height="100" fill="#09090B"/>
<g opacity="0.2">
<path d="M-11.5601 104.25L3.15994 48.25H21.5599L36.2799 104.25H25.3999L22.3599 91.93H2.35994L-0.680058 104.25H-11.5601ZM4.83994 82.17H19.8799L13.0799 54.89H11.6399L4.83994 82.17Z" fill="#FAFAFA"/>
<path d="M63.8018 105.37C59.2152 105.37 55.2685 104.543 51.9618 102.89C48.7085 101.183 46.2018 98.7833 44.4418 95.69C42.7352 92.5433 41.8818 88.8367 41.8818 84.57V48.25H52.4418V84.89C52.4418 88.3033 53.4018 90.9967 55.3218 92.97C57.2951 94.9433 60.1218 95.93 63.8018 95.93C67.4818 95.93 70.2818 94.9433 72.2018 92.97C74.1751 90.9967 75.1618 88.3033 75.1618 84.89V48.25H85.7218V84.57C85.7218 88.8367 84.8418 92.5433 83.0818 95.69C81.3752 98.7833 78.8685 101.183 75.5618 102.89C72.3085 104.543 68.3885 105.37 63.8018 105.37Z" fill="#FAFAFA"/>
</g>
</g>
<defs>
<clipPath id="clip0_5_14">
<rect width="100" height="100" fill="white"/>
</clipPath>
</defs>
</svg>
